#!OML:ASF E:\motion texture\Top Level 1\Subject 1\Session 1\male.ASF
:FULLY-SPECIFIED
:DEGREES
333
root -15.075 17.8767 3.77037 690.586 -88.5324 -689.315
lowerback 0.339535 -5.35157 -3.56689
upperback -2.61779 -7.1903 2.41425
thorax -2.142 -3.51456 4.58644
lowerneck -17.7618 -1.013 -3.7382
upperneck 13.9596 -1.4342 5.51126
head 7.26636 -0.380971 2.25616
rclavicle -4.8255e-014 -1.51076e-014
rhumerus -53.2672 3.12699 -77.083
rradius 60.6591
rwrist -4.91321
rhand -10.4011 -9.7555
rfingers 7.12502
rthumb 15.5974 -39.1466
lclavicle -4.8255e-014 -1.51076e-014
lhumerus -17.2387 -13.0274 87.4485
lradius 67.9802
lwrist 1.9582
lhand -10.6269 4.52854
lfingers 7.12502
lthumb 15.3798 33.9365
rfemur -51.5318 -6.42186 19.9242
rtibia 56.4114
rfoot 387.095 -8.54967
rtoes 28.4944
lfemur 11.7303 -6.44096 -23.5001
ltibia 18.6424
lfoot 528.031 172.257
ltoes -13.5747
334
root -15.2536 17.8541 3.73599 701.817 -88.3985 -700.345
lowerback -0.10146 -5.27426 -3.50047
upperback -2.69287 -7.07569 2.49262
thorax -1.98264 -3.46286 4.58893
lowerneck -17.6594 -1.11895 -3.82478
upperneck 13.9155 -1.56254 5.53941
head 7.2418 -0.446232 2.26439
rclavicle -8.53283e-014 6.36111e-015
rhumerus -52.6548 3.40273 -77.7906
rradius 61.0742
rwrist -4.88171
rhand -10.6422 -9.81258
rfingers 7.12502
rthumb 15.3652 -39.2217
lclavicle -8.53283e-014 6.36111e-015
lhumerus -18.3572 -13.5374 87.8937
lradius 67.6166
lwrist 1.86939
lhand -10.7768 4.71683
lfingers 7.12502
lthumb 15.2355 34.1358
rfemur -48.7968 -6.0968 19.8649
rtibia 54.1764
rfoot 385.142 -7.92683
rtoes 25.4073
lfemur 11.8635 -6.42511 -22.9929
ltibia 19.0686
lfoot 528.31 171.807
ltoes -14.4588
335
root -15.4375 17.8321 3.69919 711.285 -88.2439 -709.622
lowerback -0.56379 -5.18133 -3.44287
upperback -2.77726 -6.94102 2.5789
thorax -1.82121 -3.40086 4.60447
lowerneck -17.5461 -1.22834 -3.92899
upperneck 13.8965 -1.69224 5.56448
head 7.22389 -0.513498 2.27465
rclavicle 4.62174e-015 2.62396e-014
rhumerus -52.0039 3.70999 -78.5164
rradius 61.4425
rwrist -4.80636
rhand -10.8831 -9.86579
rfingers 7.12502
rthumb 15.1331 -39.2925
lclavicle 4.62174e-015 2.62396e-014
lhumerus -19.5556 -14.0186 88.388
lradius 67.1943
lwrist 1.85964
lhand -10.9638 4.9187
lfingers 7.12502
lthumb 15.0553 34.3513
rfemur -46.0182 -5.72303 19.9145
rtibia 52.0323
rfoot 382.214 -7.19504
rtoes 21.4594
lfemur 11.8726 -6.36466 -22.4252
ltibia 19.7297
lfoot 528.703 171.266
ltoes -15.4131
336
root -15.6252 17.811 3.66023 719.341 -88.0744 -717.488
lowerback -1.04034 -5.0731 -3.38805
upperback -2.8752 -6.78699 2.6684
thorax -1.66738 -3.32876 4.62639
lowerneck -17.415 -1.33976 -4.04883
upperneck 13.8905 -1.8228 5.59221
head 7.20752 -0.582063 2.28845
rclavicle -1.47101e-014 2.46493e-014
rhumerus -51.3291 4.06002 -79.2765
rradius 61.796
rwrist -4.7365
rhand -11.1636 -9.89473
rfingers 7.12502
rthumb 14.8629 -39.3416
lclavicle -1.47101e-014 2.46493e-014
lhumerus -20.8259 -14.4623 88.9236
lradius 66.6983
lwrist 1.93691
lhand -11.1905 5.10277
lfingers 7.12502
lthumb 14.837 34.5516
rfemur -43.236 -5.333 20.0796
rtibia 49.9412
rfoot 378.38 -6.32709
rtoes 17.2839
lfemur 11.6955 -6.24355 -21.7837
ltibia 20.6967
lfoot 529.252 170.597
ltoes -16.406
337
root -15.8152 17.7915 3.61944 726.604 -87.8981 -724.572
lowerback -1.50165 -4.94703 -3.32089
upperback -2.9865 -6.61094 2.76245
thorax -1.53927 -3.24502 4.65113
lowerneck -17.2759 -1.45377 -4.17378
upperneck 13.905 -1.95518 5.60821
head 7.1967 -0.652955 2.29929
rclavicle 5.18331e-014 -2.06736e-014
rhumerus -50.6268 4.44888 -80.0678
rradius 62.1397
rwrist -4.71061
rhand -11.5033 -9.8868
rfingers 7.12502
rthumb 14.5356 -39.3576
lclavicle 5.18331e-014 -2.06736e-014
lhumerus -22.1593 -14.8545 89.497
lradius 66.1251
lwrist 2.10739
lhand -11.4281 5.2751
lfingers 7.12502
lthumb 14.6081 34.7406
rfemur -40.4727 -4.95088 20.3711
rtibia 47.8151
rfoot 374.008 -5.37251
rtoes 13.8955
lfemur 11.3023 -6.04666 -21.0463
ltibia 22.0162
lfoot 530.02 169.779
ltoes -17.463
338
root -16.0057 17.7737 3.57769 733.389 -87.7264 -731.191
lowerback -1.94539 -4.79648 -3.22179
upperback -3.10175 -6.4041 2.85187
thorax -1.43237 -3.14588 4.65839
lowerneck -17.1492 -1.57014 -4.28931
upperneck 13.9441 -2.09177 5.61002
head 7.19615 -0.726456 2.30376
rclavicle 7.24073e-014 -6.36111e-015
rhumerus -49.8789 4.86415 -80.9012
rradius 62.4815
rwrist -4.76088
rhand -11.8761 -9.89655
rfingers 7.12502
rthumb 14.1764 -39.3928
lclavicle 7.24073e-014 -6.36111e-015
lhumerus -23.5297 -15.1876 90.0833
lradius 65.4692
lwrist 2.35564
lhand -11.655 5.4652
lfingers 7.12502
lthumb 14.3895 34.9464
rfemur -37.7686 -4.58797 20.7769
rtibia 45.5648
rfoot 369.571 -4.50739
rtoes 12.166
lfemur 10.6582 -5.76273 -20.2105
ltibia 23.7215
lfoot 531.1 168.806
ltoes -18.5036
339
root -16.1947 17.7583 3.5358 740.33 -87.5628 -737.995
lowerback -2.33508 -4.61676 -3.07088
upperback -3.21741 -6.1614 2.9437
thorax -1.36473 -3.0287 4.64782
lowerneck -17.0469 -1.6876 -4.41426
upperneck 14.0127 -2.22956 5.6181
head 7.2098 -0.800073 2.312
rclavicle -3.64273e-014 3.97569e-015
rhumerus -49.0763 5.30703 -81.7625
rradius 62.8362
rwrist -4.89758
rhand -12.2159 -9.98343
rfingers 7.12502
rthumb 13.8489 -39.5024
lclavicle -3.64273e-014 3.97569e-015
lhumerus -24.9253 -15.4306 90.6742
lradius 64.7291
lwrist 2.64779
lhand -11.8285 5.62072
lfingers 7.12502
lthumb 14.2223 35.1138
rfemur -35.157 -4.24357 21.2986
rtibia 43.1562
rfoot 365.593 -3.93555
rtoes 12.5385
lfemur 9.75441 -5.38807 -19.2621
ltibia 25.815
lfoot 532.619 167.698
ltoes -19.3829
340
root -16.3806 17.7454 3.49479 748.254 -87.4193 -745.809
lowerback -2.67046 -4.39387 -2.83217
upperback -3.32143 -5.86476 3.03861
thorax -1.32845 -2.8855 4.59965
lowerneck -16.9878 -1.81022 -4.54349
upperneck 14.1083 -2.37394 5.6302
head 7.24031 -0.875999 2.32174
rclavicle 2.67365e-014 1.03368e-014
rhumerus -48.1977 5.76741 -82.6451
rradius 63.212
rwrist -5.1124
rhand -12.4776 -10.1465
rfingers 7.12502
rthumb 13.5967 -39.6825
lclavicle 2.67365e-014 1.03368e-014
lhumerus -26.3239 -15.5724 91.247
lradius 63.9043
lwrist 2.91779
lhand -11.9453 5.75089
lfingers 7.12502
lthumb 14.1097 35.2518
rfemur -32.6996 -3.87941 21.9429
rtibia 40.638
rfoot 362.379 -3.71663
rtoes 14.5441
lfemur 8.58677 -4.90984 -18.1886
ltibia 28.2664
lfoot 534.739 166.532
ltoes -19.8596
341
root -16.5615 17.7351 3.45521 757.768 -87.2786 -755.253
lowerback -2.93373 -4.11873 -2.48344
upperback -3.40539 -5.50295 3.14129
thorax -1.32574 -2.71116 4.50708
lowerneck -16.9778 -1.93933 -4.67926
upperneck 14.2225 -2.52534 5.64669
head 7.28607 -0.954408 2.33323
rclavicle -1.59028e-014 2.54444e-014
rhumerus -47.2217 6.24497 -83.5361
rradius 63.6094
rwrist -5.38742
rhand -12.6301 -10.3954
rfingers 7.12502
rthumb 13.4498 -39.9412
lclavicle -1.59028e-014 2.54444e-014
lhumerus -27.7062 -15.5986 91.7811
lradius 62.9939
lwrist 3.10468
lhand -12.0039 5.84906
lfingers 7.12502
lthumb 14.0533 35.3539
rfemur -30.4462 -3.47049 22.7196
rtibia 38.1545
rfoot 359.927 -3.786
rtoes 17.176
lfemur 7.17107 -4.31866 -16.982
ltibia 31.0158
lfoot 537.641 165.447
ltoes -19.7152
342
root -16.7354 17.7275 3.41776 769.055 -87.0891 -766.515
lowerback -3.10086 -3.788 -1.99802
upperback -3.46366 -5.07209 3.254
thorax -1.36397 -2.50431 4.35798
lowerneck -17.0066 -2.07474 -4.81279
upperneck 14.3247 -2.68277 5.65961
head 7.33515 -1.03523 2.34221
rclavicle -5.82439e-014 2.50469e-014
rhumerus -46.1315 6.74848 -84.4305
rradius 64.0314
rwrist -5.69064
rhand -12.7567 -10.6857
rfingers 7.12502
rthumb 13.3277 -40.2395
lclavicle -5.82439e-014 2.50469e-014
lhumerus -29.068 -15.5041 92.2539
lradius 62.005
lwrist 3.18421
lhand -12.0486 5.8722
lfingers 7.12502
lthumb 14.0102 35.3801
rfemur -28.4422 -2.98865 23.6312
rtibia 35.8845
rfoot 358.148 -4.03851
rtoes 19.546
lfemur 5.52937 -3.61758 -15.6405
ltibia 33.9934
lfoot 541.424 164.616
ltoes -18.7948
343
root -16.9007 17.722 3.38237 781.527 -86.7913 -778.995
lowerback -3.1711 -3.40101 -1.37371
upperback -3.49988 -4.57063 3.37894
thorax -1.44371 -2.26461 4.15152
lowerneck -17.0644 -2.2137 -4.93961
upperneck 14.4091 -2.84262 5.66375
head 7.3836 -1.11711 2.34654
rclavicle 2.27111e-014 -3.26007e-014
rhumerus -44.923 7.29078 -85.318
rradius 64.4791
rwrist -5.97658
rhand -12.8557 -10.9929
rfingers 7.12502
rthumb 13.2323 -40.5529
lclavicle 2.27111e-014 -3.26007e-014
lhumerus -30.4145 -15.2782 92.647
lradius 60.9584
lwrist 3.11222
lhand -12.114 5.86301
lfingers 7.12502
lthumb 13.9471 35.3752
rfemur -26.74 -2.40024 24.6756
rtibia 34.0021
rfoot 356.896 -4.34048
rtoes 21.3613
lfemur 3.6709 -2.80454 -14.1821
ltibia 37.1536
lfoot 545.97 164.201
ltoes -17.1634
344
root -17.0564 17.7183 3.34943 793.641 -86.3248 -791.164
lowerback -3.12312 -2.97018 -0.616311
upperback -3.50554 -4.01296 3.51365
thorax -1.56225 -1.99964 3.88636
lowerneck -17.1515 -2.34932 -5.04877
upperneck 14.4604 -2.99614 5.65347
head 7.42565 -1.19572 2.34342
rclavicle 3.65267e-014 2.38542e-015
rhumerus -43.5787 7.89285 -86.191
rradius 64.9539
rwrist -6.21558
rhand -12.9364 -11.3212
rfingers 7.12502
rthumb 13.1545 -40.8862
lclavicle 3.65267e-014 2.38542e-015
lhumerus -31.7384 -14.9075 92.9325
lradius 59.8713
lwrist 2.91604
lhand -12.1947 5.78848
lfingers 7.12502
lthumb 13.8694 35.306
rfemur -25.3241 -1.70584 25.8236
rtibia 32.5862
rfoot 356.027 -4.60632
rtoes 22.5269
lfemur 1.62699 -1.90281 -12.6453
ltibia 40.4881
lfoot 550.993 164.188
ltoes -14.8812
345
root -17.2024 17.7162 3.31948 803.819 -85.6705 -801.449
lowerback -2.94651 -2.51892 0.258484
upperback -3.48145 -3.4267 3.65622
thorax -1.71914 -1.72343 3.56641
lowerneck -17.2817 -2.47513 -5.10255
upperneck 14.4983 -3.13607 5.58525
head 7.46824 -1.26929 2.31311
rclavicle -2.48481e-014 -1.59028e-014
rhumerus -42.0998 8.57679 -87.0365
rradius 65.4582
rwrist -6.39212
rhand -12.9832 -11.6542
rfingers 7.12502
rthumb 13.1094 -41.2221
lclavicle -2.48481e-014 -1.59028e-014
lhumerus -33.0495 -14.378 93.0961
lradius 58.7791
lwrist 2.65917
lhand -12.2912 5.68268
lfingers 7.12502
lthumb 13.7764 35.2066
rfemur -24.1493 -0.948451 27.0395
rtibia 31.6191
rfoot 355.422 -4.76678
rtoes 23.0979
lfemur -0.581019 -0.953282 -11.0796
ltibia 44.0075
lfoot 556.16 164.357
ltoes -12.1927
346
root -17.3397 17.715 3.29321 811.412 -84.8569 -809.202
lowerback -2.66256 -2.07166 1.23701
upperback -3.41433 -2.84096 3.80182
thorax -1.88327 -1.45093 3.18993
lowerneck -17.4602 -2.58248 -5.09695
upperneck 14.5077 -3.25274 5.47009
head 7.50654 -1.33192 2.25959
rclavicle -2.68359e-015 -3.18055e-014
rhumerus -40.4683 9.36037 -87.842
rradius 65.9871
rwrist -6.51837
rhand -13.029 -11.9587
rfingers 7.12502
rthumb 13.0653 -41.5295
lclavicle -2.68359e-015 -3.18055e-014
lhumerus -34.3294 -13.6922 93.1212
lradius 57.715
lwrist 2.42307
lhand -12.3945 5.59887
lfingers 7.12502
lthumb 13.6768 35.1295
rfemur -23.143 -0.209329 28.2887
rtibia 31.01
rfoot 354.985 -4.77537
rtoes 23.2718
lfemur -2.93865 -0.0111949 -9.53624
ltibia 47.7437
lfoot 561.116 164.378
ltoes -8.92675
